<svg xmlns="http://www.w3.org/2000/svg" width="24" height="24" fill="#4f87eb" viewBox="0 0 100 100" xml:space="preserve"><circle cx="50" cy="52.355" r="2.935"/><path d="M50 6.605c-25.268.001-45.749 20.482-45.75 45.75.001 17.973 10.39 33.483 25.465 40.962l.672.334 1.93-3.898-.671-.333c-4.055-2.013-7.754-4.629-10.918-7.792-7.495-7.5-12.124-17.835-12.124-29.273.001-11.438 4.63-21.773 12.125-29.272C28.227 15.588 38.562 10.96 50 10.958c11.438.001 21.773 4.63 29.272 12.125 7.495 7.498 12.123 17.833 12.125 29.272-.001 11.438-4.63 21.773-12.125 29.272-3.164 3.163-6.862 5.779-10.918 7.792l-.671.333 1.93 3.898.672-.334C85.36 85.837 95.749 70.328 95.75 52.355 95.749 27.087 75.268 6.606 50 6.605z"/><path d="M87.197 52.355h-.75.75C87.196 31.811 70.544 15.159 50 15.157c-20.544.002-37.196 16.653-37.198 37.198.001 14.613 8.448 27.224 20.704 33.304l.672.334 1.931-3.898-.671-.333c-3.218-1.597-6.152-3.673-8.663-6.182-5.947-5.951-9.619-14.147-9.62-23.224.001-9.077 3.673-17.273 9.62-23.224 5.951-5.947 14.147-9.619 23.224-9.62 9.077.001 17.273 3.673 23.224 9.62 5.947 5.951 9.618 14.147 9.62 23.224-.001 9.077-3.673 17.273-9.62 23.224-2.51 2.509-5.444 4.585-8.662 6.182l-.671.333 1.93 3.898.672-.334c12.257-6.08 20.704-18.691 20.705-33.304z"/><path d="M61.54 52.355c-.001-6.374-5.166-11.539-11.54-11.54v.75-.75c-6.374.001-11.539 5.166-11.54 11.54.001 4.536 2.641 8.422 6.436 10.304l.672.334 1.929-3.895-.671-.333c-2.372-1.181-4.008-3.591-4.013-6.41.008-3.969 3.218-7.178 7.186-7.186 3.968.008 7.178 3.218 7.186 7.186-.005 2.819-1.642 5.229-4.013 6.41l-.67.333 1.929 3.895.672-.334c3.796-1.882 6.436-5.768 6.437-10.304z"/><path d="M78.645 52.355h-.75.75C78.643 36.534 65.821 23.711 50 23.71c-15.821.001-28.644 12.824-28.645 28.645.001 11.254 6.506 20.965 15.944 25.647l.672.334 1.931-3.899-.671-.333c-2.381-1.182-4.551-2.717-6.407-4.573-4.399-4.403-7.114-10.461-7.115-17.177.001-6.715 2.715-12.774 7.115-17.177 4.403-4.399 10.461-7.113 17.177-7.115 6.715.001 12.773 2.715 17.177 7.115 4.399 4.403 7.113 10.461 7.115 17.177-.001 6.715-2.715 12.773-7.115 17.177-1.856 1.855-4.026 3.39-6.407 4.572l-.671.333 1.93 3.899.672-.334c9.437-4.681 15.942-14.392 15.943-25.646z"/><path d="M70.092 52.355h-.75.75C70.091 41.257 61.098 32.264 50 32.263c-11.098.001-20.091 8.995-20.092 20.092.001 7.894 4.564 14.706 11.183 17.99l.672.334 1.93-3.899-.671-.333c-1.544-.766-2.949-1.761-4.152-2.963-2.852-2.855-4.608-6.775-4.61-11.129.001-4.354 1.758-8.273 4.61-11.129 2.855-2.852 6.775-4.608 11.129-4.61 4.353.001 8.273 1.758 11.129 4.61 2.852 2.855 4.608 6.775 4.61 11.129-.001 4.353-1.758 8.273-4.61 11.129-1.202 1.201-2.608 2.196-4.151 2.962l-.671.333 1.931 3.898.672-.334c6.62-3.282 11.182-10.094 11.183-17.988z"/></svg>